<svg xmlns="http://www.w3.org/2000/svg" width="1129" height="412" viewBox="0 0 1129 412">
<g>
<path d="M 1119.32 403.75 C1117.96,404.75 1005.41,405.00 564.46,405.00 C29.85,405.00 11.25,404.94 9.65,403.17 C8.13,401.48 8.00,386.36 8.00,205.87 C8.00,55.17 8.27,10.13 9.20,9.20 C10.70,7.70 1119.53,7.43 1120.45,8.92 C1120.76,9.43 1121.02,98.19 1121.02,206.17 C1121.03,390.06 1120.92,402.58 1119.32,403.75 ZM 112.24 314.34 C114.03,314.60 120.80,314.69 127.28,314.55 C137.99,314.31 139.29,314.07 141.51,311.99 C143.80,309.84 143.96,308.99 144.22,297.10 L 144.50 284.50 L 150.17 284.20 L 155.84 283.90 L 156.17 297.42 C156.39,306.23 156.28,310.50 158.36,312.58 C160.32,314.53 164.24,314.52 172.21,314.50 C172.97,314.50 173.78,314.50 174.62,314.50 L 189.17 314.50 L 191.59 311.69 C193.71,309.22 194.00,307.92 194.00,300.67 C194.00,291.12 192.75,288.55 187.62,287.59 C183.39,286.79 183.00,285.81 183.00,275.96 C183.00,268.58 183.16,267.98 185.64,266.30 C187.09,265.31 189.58,263.15 191.18,261.50 C195.18,257.36 195.97,256.59 200.25,252.65 C203.24,249.90 204.00,248.48 204.00,245.62 C204.00,242.45 204.46,241.81 207.98,240.01 C212.57,237.67 212.90,236.73 213.25,225.00 L 213.50 216.50 L 221.20 215.95 C232.81,215.13 233.00,214.83 233.00,198.00 C233.00,181.11 232.94,181.02 220.78,180.11 C213.72,179.59 212.47,179.22 212.16,177.59 C211.81,175.75 212.41,175.71 228.15,176.34 C243.41,176.96 244.72,176.87 247.77,175.00 C251.67,172.62 253.00,169.57 253.00,162.99 C253.00,160.31 253.43,157.85 253.96,157.53 C254.49,157.20 257.88,156.58 261.51,156.14 C265.36,155.67 267.86,155.49 269.45,154.20 C272.37,151.85 272.31,145.81 272.13,127.65 C272.13,126.75 272.12,125.82 272.11,124.85 C271.97,110.42 271.46,97.86 270.97,96.94 C270.47,96.02 268.76,95.00 267.17,94.68 C264.94,94.24 263.71,92.98 261.88,89.30 C259.53,84.57 259.42,84.49 253.50,83.69 C244.18,82.43 170.06,83.71 168.32,85.15 C167.53,85.81 166.25,87.86 165.48,89.71 C164.55,91.92 162.90,93.56 160.66,94.50 C158.78,95.28 156.87,96.73 156.42,97.71 C155.97,98.70 155.42,112.25 155.22,127.83 L 154.84 156.16 L 151.36 158.21 C149.46,159.34 147.13,161.89 146.19,163.88 C144.67,167.11 143.99,167.56 139.86,168.03 C134.73,168.62 132.60,169.98 130.74,173.84 C129.84,175.73 128.03,176.87 124.11,178.05 C120.02,179.29 118.37,180.37 117.24,182.59 C114.98,187.01 112.91,189.00 110.59,189.00 C109.43,189.00 107.92,189.90 107.23,191.00 C106.01,192.96 105.91,192.95 100.90,190.25 C98.06,188.71 94.80,185.93 93.51,183.93 C92.24,181.97 90.03,179.60 88.60,178.66 C86.24,177.11 86.00,176.35 86.00,170.49 C86.00,164.83 85.66,163.67 83.25,161.08 C80.93,158.58 79.51,158.03 74.14,157.55 C66.03,156.83 60.52,158.28 58.25,161.75 C56.67,164.16 56.51,167.53 56.62,196.46 C56.70,217.59 57.12,229.45 57.86,231.30 C58.49,232.86 60.34,234.66 62.05,235.38 C63.74,236.09 65.98,238.08 67.02,239.80 C68.07,241.52 70.71,244.05 72.88,245.43 C75.06,246.80 77.14,248.86 77.50,250.00 C77.86,251.14 79.89,253.17 82.01,254.51 C84.13,255.84 86.45,258.17 87.18,259.68 C87.91,261.19 90.39,263.69 92.69,265.24 C95.00,266.79 97.17,268.96 97.52,270.06 C97.87,271.17 99.92,273.19 102.08,274.55 L 106.00 277.03 L 106.00 292.56 C106.00,310.56 106.86,313.57 112.24,314.34 ZM 135.80 300.09 C135.99,303.01 135.63,305.01 134.80,305.59 C134.08,306.09 129.23,306.27 124.00,306.00 L 114.50 305.50 L 114.50 267.50 L 105.11 266.89 L 104.50 257.50 L 95.11 256.89 L 94.50 247.50 L 90.00 247.00 C85.52,246.50 85.50,246.48 85.20,242.30 L 84.89 238.11 L 75.50 237.50 L 75.20 232.75 L 74.89 228.00 L 66.00 228.00 L 66.00 167.00 L 76.93 167.00 L 77.21 176.75 L 77.50 186.50 L 87.00 187.11 L 87.00 195.89 L 96.50 196.50 L 96.80 201.25 L 97.11 206.00 L 105.55 206.00 C110.20,206.00 114.04,205.66 114.09,205.25 C114.15,204.84 114.26,202.93 114.34,201.00 C114.49,197.67 114.69,197.48 118.49,197.18 C123.74,196.75 125.00,195.54 125.00,190.92 L 125.00 187.09 L 131.75 186.80 L 138.50 186.50 L 139.50 176.50 L 153.50 175.50 L 154.11 167.11 L 163.50 166.50 L 163.76 134.75 L 164.03 103.00 L 167.81 103.00 C172.59,103.00 174.00,101.59 174.00,96.80 L 174.00 93.00 L 253.89 93.00 L 254.50 102.50 L 259.27 102.81 L 264.04 103.11 L 263.77 125.81 L 263.50 148.50 L 215.00 149.04 L 215.00 157.00 L 244.00 157.00 L 244.00 168.00 L 227.62 168.00 C218.62,168.00 209.83,168.28 208.09,168.63 L 204.93 169.26 L 205.50 186.50 L 215.28 186.79 L 225.07 187.07 L 224.78 197.29 L 224.50 207.50 L 213.50 207.50 L 213.00 203.00 C212.51,198.63 212.39,198.49 208.77,198.19 L 205.05 197.88 L 204.50 232.50 L 199.79 232.80 L 195.09 233.11 L 194.79 239.80 L 194.50 246.50 L 185.50 247.50 L 184.89 256.89 L 175.50 257.50 L 175.50 294.50 L 180.25 294.80 L 185.00 295.11 L 185.00 305.87 L 174.91 306.18 C169.36,306.36 164.64,306.31 164.41,306.08 C164.19,305.85 164.00,299.22 164.00,291.33 L 164.00 277.00 L 154.00 277.00 L 154.00 267.00 L 146.11 267.00 L 145.50 276.50 L 136.11 277.11 L 135.50 286.50 L 130.75 286.80 L 126.00 287.11 L 126.00 294.89 L 130.75 295.20 L 135.50 295.50 ZM 960.02 188.75 L 961.17 194.00 L 965.52 194.00 C972.78,194.00 974.40,192.89 975.91,186.86 C978.36,177.09 978.77,177.28 981.98,189.75 C983.05,193.91 983.17,194.00 987.29,193.99 C995.15,193.96 995.53,193.62 997.89,184.67 C1000.16,176.05 1003.34,160.64 1004.43,152.89 L 1005.08 148.28 L 1000.38 147.64 C997.79,147.28 995.56,147.11 995.42,147.25 C995.28,147.39 994.23,154.93 993.07,164.00 C989.73,190.31 989.23,191.52 987.07,178.50 C986.43,174.65 984.95,166.87 983.77,161.22 L 981.64 150.93 L 977.07 151.59 C974.56,151.96 972.38,152.36 972.23,152.48 C972.09,152.60 972.59,155.68 973.36,159.32 C974.71,165.79 974.67,166.18 971.67,175.97 C969.98,181.49 968.28,186.00 967.90,186.00 C967.51,186.00 966.88,183.19 966.48,179.75 C965.46,170.80 961.35,148.02 960.63,147.29 C960.29,146.96 958.16,147.24 955.89,147.92 C951.98,149.09 951.79,149.32 952.32,152.33 C952.80,155.08 956.38,172.02 960.02,188.75 ZM 553.13 208.50 C554.27,210.42 555.63,212.00 556.16,212.00 C557.59,212.00 560.69,210.26 568.25,205.23 L 575.00 200.73 L 575.00 184.87 C575.00,169.07 574.99,169.00 572.75,169.01 C566.50,169.05 566.00,169.68 566.00,177.51 C566.00,183.22 565.66,184.92 564.42,185.39 C561.52,186.50 559.96,186.02 559.10,183.75 C557.75,180.19 556.87,169.63 557.80,168.23 C558.26,167.53 562.66,166.26 567.56,165.41 C572.47,164.55 576.59,163.74 576.72,163.62 C576.84,163.49 576.49,161.73 575.93,159.69 C575.19,157.03 574.36,156.00 572.94,156.00 C569.41,156.00 551.54,160.17 550.13,161.32 C548.19,162.91 549.06,184.08 551.28,189.25 C552.84,192.86 553.08,193.00 557.83,193.00 C560.99,193.00 563.20,192.46 564.00,191.50 C566.00,189.09 567.00,189.75 567.00,193.49 C567.00,196.85 566.70,197.13 559.03,200.98 L 551.06 204.99 ZM 794.30 208.51 C795.22,210.43 796.58,212.00 797.32,212.00 C798.07,212.00 802.46,209.63 807.09,206.74 L 815.50 201.47 L 815.77 185.24 L 816.05 169.00 L 813.61 169.00 C808.47,169.00 808.00,169.71 808.00,177.53 L 808.00 184.84 L 804.90 185.52 C803.09,185.92 801.35,185.75 800.72,185.12 C800.13,184.53 799.45,180.26 799.20,175.63 L 798.76 167.21 L 801.63 166.63 C803.21,166.31 807.56,165.54 811.30,164.91 L 818.11 163.78 L 817.45 160.64 C817.09,158.91 816.37,157.06 815.87,156.52 C814.77,155.36 793.33,159.48 791.17,161.28 C788.97,163.10 789.99,183.27 792.56,188.51 C794.36,192.21 794.84,192.52 799.09,192.80 C802.29,193.01 804.06,192.63 804.96,191.55 C807.00,189.09 808.00,189.73 808.00,193.49 C808.00,196.82 807.67,197.14 800.75,200.60 C796.76,202.60 793.31,204.41 793.07,204.63 C792.83,204.85 793.39,206.59 794.30,208.51 ZM 1046.00 142.25 L 1046.00 194.23 L 1056.37 193.84 C1062.70,193.61 1067.33,192.97 1068.26,192.20 C1070.51,190.33 1072.13,182.78 1072.74,171.36 C1073.26,161.49 1073.21,161.19 1070.89,159.71 C1069.57,158.87 1066.53,157.87 1064.13,157.49 C1059.26,156.70 1058.04,157.63 1058.02,162.12 C1058.00,164.27 1058.57,164.86 1061.15,165.38 L 1064.29 166.01 L 1063.67 173.38 C1062.78,183.92 1061.81,186.00 1057.77,186.00 L 1054.50 186.00 L 1054.86 163.50 C1054.88,162.01 1054.90,160.61 1054.93,159.30 C1055.15,146.16 1055.22,142.11 1053.58,141.22 C1052.85,140.83 1051.78,141.06 1050.23,141.39 C1049.89,141.47 1049.52,141.55 1049.12,141.62 ZM 885.47 194.96 C886.03,195.86 888.58,195.70 892.61,194.50 C893.32,194.29 893.97,188.37 894.44,178.00 C895.09,163.43 894.99,161.65 893.43,159.92 C891.01,157.25 883.18,157.28 879.76,159.97 L 877.25 161.95 L 876.64 158.22 C876.30,156.18 876.02,151.41 876.01,147.64 L 876.00 140.78 L 872.25 141.47 C870.19,141.85 868.11,142.53 867.64,142.99 C867.16,143.46 867.10,154.77 867.51,168.41 L 868.25 193.00 L 876.00 193.00 L 876.01 183.75 C876.02,178.66 876.30,172.82 876.64,170.77 C877.18,167.48 877.66,166.97 880.74,166.39 C883.18,165.93 884.50,166.15 885.16,167.12 C885.71,167.93 885.84,173.75 885.46,181.20 C885.11,188.19 885.12,194.38 885.47,194.96 ZM 490.37 194.05 C495.94,195.03 500.78,195.87 501.13,195.92 C501.47,195.96 502.21,194.20 502.77,191.99 C502.84,191.75 502.90,191.52 502.95,191.30 C503.29,190.00 503.51,189.16 503.23,188.56 C502.68,187.40 500.24,187.13 493.12,186.04 C489.61,185.51 486.61,184.94 486.46,184.78 C486.31,184.63 486.42,182.36 486.72,179.75 L 487.26 175.00 L 494.02 175.00 C501.23,175.00 502.00,174.46 502.00,169.42 C502.00,167.08 501.76,167.00 494.62,167.00 L 487.25 167.00 L 486.62 163.88 C486.55,163.51 486.48,163.17 486.42,162.85 C485.95,160.59 485.67,159.23 486.19,158.31 C487.05,156.79 490.12,156.51 498.25,155.41 C503.29,154.73 503.85,153.76 502.36,148.23 C502.20,147.62 502.11,147.15 501.84,146.84 C501.05,145.92 498.66,146.37 487.91,148.40 C487.37,148.50 486.82,148.61 486.25,148.72 L 478.00 150.27 L 478.00 170.58 C478.00,184.52 478.35,191.10 479.12,191.58 C479.74,191.96 484.80,193.07 490.37,194.05 ZM 654.50 193.92 C658.90,194.98 662.81,195.89 663.19,195.93 C664.16,196.03 664.66,195.00 665.46,191.25 C665.49,191.12 665.52,190.99 665.54,190.87 C665.78,189.78 665.94,189.05 665.69,188.52 C665.18,187.42 662.97,187.12 656.25,186.01 C649.59,184.91 649.00,184.62 649.00,182.41 C649.00,180.05 649.18,180.00 657.65,180.00 L 666.30 180.00 L 665.64 169.75 C664.90,158.36 664.12,157.00 658.29,157.00 C653.94,157.00 642.49,162.22 641.09,164.83 C639.87,167.12 639.68,174.69 640.64,183.79 C641.37,190.79 641.26,190.71 654.50,193.92 ZM 919.50 194.39 C922.80,195.18 925.93,195.72 926.45,195.60 C927.58,195.32 929.16,189.96 928.57,188.38 C928.35,187.76 925.54,186.94 922.33,186.55 C912.93,185.42 912.00,185.05 912.00,182.39 C912.00,180.05 912.19,180.00 920.65,180.00 L 929.30 180.00 L 928.64 169.75 C927.90,158.36 927.12,157.00 921.29,157.00 C916.94,157.00 905.49,162.22 904.09,164.83 C902.86,167.12 902.68,174.69 903.64,183.82 L 904.28 189.93 L 908.89 191.45 C911.42,192.28 916.20,193.61 919.50,194.39 ZM 688.50 193.91 C692.90,194.98 696.93,195.74 697.45,195.61 C698.57,195.32 700.16,189.97 699.58,188.40 C699.36,187.79 696.57,186.99 693.38,186.61 C684.14,185.53 683.00,185.07 683.00,182.39 C683.00,180.05 683.19,180.00 691.65,180.00 L 700.30 180.00 L 699.64 169.75 C698.92,158.59 698.07,157.00 692.85,157.00 C688.81,157.00 678.99,160.91 676.31,163.60 C673.79,166.12 673.35,171.46 674.64,183.79 C675.37,190.79 675.26,190.71 688.50,193.91 ZM 1031.50 195.32 C1032.60,195.57 1033.81,195.82 1034.18,195.88 C1034.56,195.95 1035.12,195.10 1035.43,194.00 C1035.74,192.90 1036.24,191.15 1036.53,190.11 C1037.08,188.16 1034.59,187.26 1023.75,185.51 C1020.60,185.01 1020.00,184.52 1020.00,182.45 C1020.00,180.04 1020.13,180.00 1028.64,180.00 L 1037.29 180.00 L 1036.65 173.25 C1036.30,169.54 1036.01,165.07 1036.01,163.32 C1036.00,158.45 1033.56,156.65 1027.89,157.33 C1023.18,157.88 1013.19,162.25 1011.74,164.38 C1010.54,166.15 1011.07,187.73 1012.36,189.42 C1013.30,190.65 1020.60,192.90 1031.50,195.32 ZM 614.00 234.79 L 614.00 269.20 L 622.92 268.85 C630.72,268.54 632.17,268.20 634.42,266.08 C637.86,262.85 638.06,256.07 634.81,253.04 C633.61,251.92 632.18,251.00 631.64,251.00 C631.09,251.00 631.70,249.88 632.99,248.51 C635.99,245.31 636.06,240.61 633.14,237.69 C631.30,235.85 629.58,235.44 622.47,235.15 ZM 512.65 186.40 C513.17,192.50 513.60,193.98 514.73,193.55 C515.52,193.25 517.25,193.00 518.58,193.00 L 521.00 193.00 L 521.00 168.24 L 525.22 167.17 C527.54,166.58 529.64,166.31 529.89,166.56 C530.14,166.81 530.55,173.11 530.81,180.56 L 531.26 194.10 L 534.88 193.80 L 538.50 193.50 L 539.37 177.24 C540.38,158.16 540.33,158.00 532.45,158.00 C528.26,158.00 526.53,158.52 524.18,160.50 L 521.22 163.00 L 520.56 160.39 C520.04,158.30 519.48,157.91 517.70,158.38 C516.49,158.71 514.71,158.98 513.75,158.99 C512.20,159.00 512.00,160.14 512.00,168.85 C512.00,174.27 512.29,182.16 512.65,186.40 ZM 753.67 176.87 C754.21,191.17 754.56,194.00 755.74,193.55 C756.52,193.25 758.25,193.00 759.58,193.00 C761.93,193.00 762.00,192.79 762.00,185.14 C762.00,180.82 762.29,175.20 762.63,172.65 C763.22,168.37 763.54,167.94 766.88,167.02 C768.87,166.46 770.84,166.01 771.25,166.01 C771.66,166.00 772.00,172.33 772.00,180.06 L 772.00 194.12 L 779.50 193.50 L 780.14 187.50 C781.29,176.74 781.10,160.50 779.80,159.20 C777.83,157.23 768.87,157.75 766.00,160.00 C762.84,162.48 762.36,162.47 761.69,159.94 C761.23,158.15 760.66,157.97 757.33,158.57 C755.22,158.95 753.39,159.35 753.26,159.46 C753.13,159.56 753.31,167.40 753.67,176.87 ZM 604.70 193.36 C605.08,193.75 606.02,193.82 606.78,193.53 C607.54,193.24 608.97,193.00 609.96,193.00 C611.56,193.00 611.84,191.60 612.48,180.54 C613.25,167.15 612.84,168.00 619.22,166.58 L 621.94 165.98 L 622.22 179.74 L 622.50 193.50 L 626.13 193.80 C629.71,194.10 629.76,194.05 630.34,189.80 C631.63,180.34 631.47,161.27 630.09,159.61 C628.10,157.21 619.52,157.45 616.27,160.00 C614.87,161.10 613.34,162.00 612.87,162.00 C612.39,162.00 612.00,161.10 612.00,160.00 C612.00,157.80 611.69,157.71 607.12,158.62 L 604.00 159.25 L 604.00 175.96 C604.00,185.15 604.31,192.98 604.70,193.36 ZM 494.50 269.05 C497.58,270.32 500.22,270.13 503.48,268.43 C505.40,267.43 506.59,267.26 506.81,267.94 C507.01,268.52 508.03,269.00 509.08,269.00 C510.90,269.00 511.00,268.07 511.00,250.50 L 511.00 232.00 L 508.38 232.00 C505.79,232.00 505.77,232.05 506.18,238.50 C506.61,245.20 506.26,245.81 503.15,243.86 C500.56,242.25 494.27,243.64 491.46,246.45 C485.15,252.75 486.93,265.96 494.50,269.05 ZM 805.50 268.58 C809.49,270.36 811.48,270.32 815.26,268.37 C817.44,267.24 818.53,267.08 818.79,267.87 C819.00,268.49 820.04,269.00 821.11,269.00 C822.98,269.00 823.04,268.26 822.78,250.75 C822.50,232.68 822.48,232.50 820.25,232.18 C818.12,231.88 818.00,232.19 818.00,238.29 L 818.00 244.72 L 813.94 243.64 C810.46,242.71 809.33,242.84 806.19,244.53 C801.21,247.19 798.74,252.15 799.39,258.17 C800.02,264.04 801.68,266.87 805.50,268.58 ZM 1055.10 268.74 C1058.49,270.48 1061.01,270.29 1064.75,268.01 C1067.40,266.39 1068.00,266.30 1068.00,267.51 C1068.00,268.33 1068.90,269.00 1070.00,269.00 C1071.93,269.00 1072.00,268.33 1072.00,250.50 L 1072.00 232.00 L 1069.38 232.00 C1066.79,232.00 1066.77,232.05 1067.18,238.53 C1067.54,244.12 1067.38,244.97 1066.05,244.44 C1056.33,240.59 1048.76,246.25 1048.85,257.32 C1048.89,262.83 1050.96,266.61 1055.10,268.74 ZM 992.89 268.00 C994.87,269.05 997.49,269.93 998.70,269.96 C1001.18,270.01 1005.86,268.13 1007.75,266.34 C1011.11,263.14 1011.95,255.20 1009.54,249.43 C1007.01,243.38 998.45,241.21 992.19,245.03 C983.86,250.10 984.27,263.45 992.89,268.00 ZM 338.30 268.10 C340.56,269.52 342.61,269.97 345.29,269.64 C350.72,268.98 353.56,266.73 355.56,261.48 C357.14,257.35 357.17,256.42 355.89,252.28 C353.99,246.19 350.36,243.50 344.01,243.50 C340.23,243.50 338.57,244.05 336.45,246.00 C329.25,252.65 330.12,262.96 338.30,268.10 ZM 851.00 193.80 C854.58,194.91 857.85,195.49 858.27,195.09 C858.69,194.69 859.44,192.97 859.93,191.26 C860.81,188.17 860.79,188.15 855.83,186.96 C853.09,186.30 850.60,185.13 850.31,184.36 C850.01,183.58 850.09,179.14 850.47,174.48 L 851.18 166.00 L 860.00 166.00 L 860.00 157.73 L 855.50 158.34 L 851.00 158.96 L 851.00 153.36 C851.00,148.05 850.89,147.80 848.75,148.37 C847.51,148.70 845.49,148.98 844.25,148.99 L 842.00 149.00 L 842.00 169.38 C842.00,184.47 842.32,190.02 843.25,190.78 C843.94,191.34 847.42,192.70 851.00,193.80 ZM 648.85 268.87 C652.93,270.37 655.20,270.17 659.26,268.00 C662.37,266.34 663.00,266.25 663.00,267.50 C663.00,268.33 663.89,269.00 665.00,269.00 C666.87,269.00 667.00,268.33 667.00,259.06 C667.00,250.18 666.76,248.83 664.75,246.52 C661.72,243.03 656.28,242.24 650.49,244.45 C646.37,246.02 645.03,247.70 646.63,249.29 C646.97,249.64 648.52,249.26 650.08,248.46 C653.50,246.69 659.15,246.55 660.80,248.20 C663.25,250.65 662.17,252.88 658.25,253.52 C647.74,255.23 642.73,259.51 644.95,264.89 C645.65,266.57 647.37,268.33 648.85,268.87 ZM 746.00 268.88 C749.69,270.35 753.72,270.20 757.05,268.47 C760.25,266.82 761.35,263.21 758.25,264.53 C752.88,266.83 747.21,266.21 743.97,262.97 C739.88,258.88 741.21,258.00 751.53,258.00 C762.39,258.00 763.07,257.50 761.08,250.88 C757.87,240.14 741.20,240.92 737.90,251.95 C735.73,259.17 739.06,266.12 746.00,268.88 ZM 434.62 268.97 C438.94,270.26 441.69,270.15 445.52,268.56 C448.03,267.51 448.81,266.67 448.36,265.50 C447.96,264.45 447.17,264.14 446.12,264.59 C442.92,266.00 437.90,266.20 435.11,265.04 C432.80,264.09 430.00,260.50 430.00,258.49 C430.00,258.26 434.39,257.94 439.75,257.79 L 449.50 257.50 L 449.77 254.50 C449.93,252.81 449.16,250.07 448.02,248.23 C442.72,239.65 429.33,242.41 425.90,252.79 C423.76,259.29 427.88,266.95 434.62,268.97 ZM 709.65 190.30 C710.11,193.06 710.68,193.95 711.72,193.55 C712.51,193.25 714.25,193.00 715.58,193.00 L 718.00 193.00 L 718.00 168.23 L 722.63 167.53 C729.85,166.45 729.89,166.41 728.76,161.94 C727.89,158.53 727.38,158.00 724.96,158.00 C723.07,158.00 721.52,158.88 720.16,160.75 L 718.16 163.50 L 717.47 160.75 C716.72,157.74 716.66,157.72 712.12,158.62 L 709.00 159.25 L 709.01 172.88 C709.02,180.37 709.30,188.21 709.65,190.30 ZM 734.70 176.84 L 735.31 194.00 L 737.91 193.98 C739.33,193.98 741.00,193.64 741.62,193.23 C742.33,192.77 743.01,186.12 743.47,175.25 L 744.20 158.00 L 739.66 158.00 C737.16,158.00 734.88,158.38 734.60,158.84 C734.31,159.30 734.36,167.40 734.70,176.84 ZM 585.67 193.33 C586.58,194.24 590.22,194.15 591.76,193.17 C592.65,192.61 593.21,187.30 593.67,175.19 L 594.31 158.00 L 585.00 158.00 L 585.00 175.33 C585.00,184.87 585.30,192.97 585.67,193.33 ZM 708.00 250.50 C708.00,268.33 708.07,269.00 710.00,269.00 C711.58,269.00 712.00,268.33 712.00,265.80 C712.00,262.92 716.04,257.00 718.01,257.00 C718.37,257.00 720.61,259.70 723.00,263.00 C726.23,267.45 727.96,269.00 729.74,269.00 L 732.14 269.00 L 729.90 265.75 C728.67,263.96 726.10,260.55 724.20,258.17 L 720.73 253.84 L 725.58 248.92 C730.13,244.30 730.27,244.00 727.93,244.00 C726.21,244.00 723.60,245.86 719.50,250.00 C716.23,253.30 713.21,256.00 712.78,256.00 C712.35,256.00 712.00,250.60 712.00,244.00 C712.00,232.67 711.89,232.00 710.00,232.00 C708.07,232.00 708.00,232.67 708.00,250.50 ZM 1020.92 267.08 C1024.41,270.56 1028.10,270.85 1032.77,268.00 C1036.70,265.60 1037.00,265.57 1037.00,267.50 C1037.00,268.33 1037.89,269.00 1039.00,269.00 C1040.89,269.00 1041.00,268.33 1041.00,256.50 L 1041.00 244.00 L 1038.50 244.00 C1036.02,244.00 1036.00,244.07 1036.00,252.93 C1036.00,261.38 1035.86,261.96 1033.37,263.93 C1030.45,266.22 1027.87,266.54 1024.93,264.96 C1023.22,264.05 1023.00,262.79 1023.00,253.96 C1023.00,244.00 1023.00,244.00 1020.50,244.00 L 1018.00 244.00 L 1018.00 254.08 C1018.00,263.88 1018.08,264.23 1020.92,267.08 ZM 273.00 235.00 L 273.00 269.00 L 275.50 269.00 C277.94,269.00 278.00,268.83 278.00,261.50 L 278.00 254.00 L 284.50 254.00 C288.08,254.00 291.00,253.81 291.00,253.58 C291.00,253.35 291.27,252.45 291.61,251.58 C292.13,250.23 291.18,250.00 285.11,250.00 L 278.00 250.00 L 278.00 239.00 L 286.00 239.00 C293.33,239.00 294.00,238.83 294.00,237.00 C294.00,235.13 293.33,235.00 283.50,235.00 ZM 933.50 268.60 C935.15,269.33 937.62,269.94 939.00,269.96 C942.42,270.01 948.50,266.84 948.50,265.00 C948.50,263.28 946.82,263.30 942.37,265.09 C938.27,266.74 933.50,264.87 930.89,260.58 C928.13,256.07 928.32,247.30 931.27,242.93 C934.23,238.54 939.81,236.99 943.63,239.50 C945.94,241.01 946.40,241.03 947.73,239.70 C949.06,238.36 948.92,237.99 946.41,236.35 C942.66,233.89 934.68,234.10 931.11,236.75 C920.71,244.46 922.14,263.58 933.50,268.60 ZM 364.00 256.50 L 364.00 269.00 L 366.50 269.00 C368.98,269.00 369.00,268.93 369.00,260.07 C369.00,251.62 369.14,251.04 371.63,249.07 C374.78,246.60 379.24,246.38 381.09,248.60 C381.91,249.59 382.57,253.81 382.83,259.60 C383.19,267.99 383.44,269.00 385.12,269.00 C386.82,269.00 387.00,268.15 387.00,260.15 C387.00,255.28 386.50,249.87 385.89,248.13 C383.99,242.67 379.25,241.56 372.50,245.00 C372.32,245.09 372.14,245.18 371.97,245.27 C369.40,246.58 368.49,247.04 368.17,246.78 C368.00,246.64 368.00,246.28 368.00,245.71 C368.00,245.64 368.00,245.57 368.00,245.50 C368.00,244.67 367.11,244.00 366.00,244.00 C364.11,244.00 364.00,244.67 364.00,256.50 ZM 406.50 268.79 C410.36,271.01 419.00,269.78 419.00,267.02 C419.00,265.56 418.26,265.36 414.18,265.76 C407.26,266.42 406.00,264.84 406.00,255.48 L 406.00 248.10 L 412.24 247.80 C417.17,247.56 418.55,247.14 418.80,245.80 C419.08,244.37 418.13,244.05 412.81,243.80 L 406.50 243.50 L 406.19 239.75 C405.95,236.86 405.45,236.00 404.00,236.00 C402.55,236.00 402.05,236.86 401.81,239.75 C401.52,243.31 401.31,243.52 397.69,243.81 C394.75,244.06 393.95,244.51 394.20,245.81 C394.42,246.97 395.70,247.60 398.26,247.81 L 402.00 248.12 L 402.03 256.31 C402.06,264.68 402.77,266.65 406.50,268.79 ZM 458.00 256.50 C458.00,268.33 458.11,269.00 460.00,269.00 C461.85,269.00 462.00,268.33 462.00,259.99 L 462.00 250.97 L 465.25 248.99 C469.17,246.60 472.31,246.46 474.43,248.57 C475.64,249.78 476.00,252.34 476.00,259.64 C476.00,268.92 476.05,269.13 478.25,268.82 C480.19,268.54 480.55,267.81 480.82,263.50 C481.92,246.55 476.00,239.05 466.23,245.00 C462.30,247.40 462.00,247.43 462.00,245.50 C462.00,244.67 461.11,244.00 460.00,244.00 C458.11,244.00 458.00,244.67 458.00,256.50 ZM 770.00 256.50 C770.00,268.33 770.11,269.00 772.00,269.00 C773.85,269.00 774.00,268.33 774.00,260.07 C774.00,251.62 774.14,251.04 776.63,249.07 C780.14,246.32 784.45,246.38 786.44,249.22 C787.57,250.82 788.00,253.90 788.00,260.22 C788.00,268.33 788.15,269.00 790.00,269.00 C791.87,269.00 792.00,268.33 792.00,258.45 C792.00,248.59 791.84,247.75 789.55,245.45 C786.54,242.45 782.78,242.31 777.50,245.00 L 777.13 245.19 C774.50,246.53 773.52,247.03 773.31,246.81 C773.19,246.67 773.34,246.28 773.58,245.65 L 773.64 245.50 C774.04,244.46 773.57,244.00 772.11,244.00 C770.08,244.00 770.00,244.46 770.00,256.50 ZM 1002.46 264.84 C998.52,266.63 996.13,266.24 993.45,263.35 C988.28,257.77 991.61,247.00 998.52,247.00 C1002.53,247.00 1004.73,248.64 1006.04,252.62 C1007.66,257.53 1005.99,263.23 1002.46,264.84 ZM 347.46 265.38 C339.65,268.37 333.29,259.15 337.52,250.96 C339.17,247.78 342.57,246.42 346.48,247.41 C349.28,248.11 352.00,252.59 352.00,256.50 C352.00,259.80 349.56,264.57 347.46,265.38 ZM 683.42 268.58 C685.11,269.32 687.72,269.94 689.22,269.96 C692.54,270.01 699.00,267.05 699.00,265.48 C699.00,263.34 697.80,263.13 694.51,264.70 C692.31,265.75 690.05,266.04 687.65,265.59 C676.47,263.50 678.42,247.00 689.86,247.00 C691.92,247.00 694.11,247.51 694.73,248.13 C695.99,249.39 699.00,248.63 699.00,247.06 C699.00,245.50 693.45,243.00 690.02,243.00 C681.63,243.00 676.00,248.42 676.00,256.50 C676.00,262.51 678.38,266.39 683.42,268.58 ZM 815.78 264.44 C810.18,268.36 804.00,264.19 804.00,256.50 C804.00,249.06 810.05,244.82 816.07,248.04 C817.69,248.91 818.00,250.17 818.00,255.98 C818.00,261.98 817.71,263.09 815.78,264.44 ZM 503.78 264.44 C499.80,267.23 495.69,266.24 493.48,261.96 C491.60,258.33 491.60,254.68 493.46,251.07 C495.08,247.95 496.80,247.00 500.88,247.00 C505.04,247.00 506.00,248.72 506.00,256.14 C506.00,261.98 505.70,263.10 503.78,264.44 ZM 1064.94 264.25 C1061.17,267.30 1056.74,266.33 1054.48,261.96 C1050.23,253.75 1056.06,244.88 1063.89,247.63 C1066.32,248.48 1066.52,249.02 1066.80,255.52 C1067.07,261.67 1066.85,262.71 1064.94,264.25 ZM 969.32 268.99 C972.26,270.18 974.38,270.19 977.42,269.03 C980.98,267.68 979.84,264.88 976.03,265.64 C974.50,265.95 972.29,265.69 971.12,265.07 C969.10,263.98 969.00,263.21 969.00,247.96 L 969.00 232.00 L 962.43 232.00 C956.71,232.00 955.90,232.23 956.19,233.75 C956.43,235.03 957.66,235.58 960.76,235.81 L 965.00 236.11 L 965.00 250.12 C965.00,264.77 965.62,267.51 969.32,268.99 ZM 305.00 256.50 C305.00,268.33 305.11,269.00 307.00,269.00 C308.82,269.00 309.00,268.33 309.00,261.72 C309.00,253.61 310.22,250.97 315.14,248.43 C316.80,247.57 319.59,247.01 321.33,247.18 C323.94,247.44 324.50,247.15 324.50,245.50 C324.50,242.30 318.36,242.27 313.67,245.45 C309.15,248.52 309.00,248.54 309.00,246.00 C309.00,244.67 308.33,244.00 307.00,244.00 C305.11,244.00 305.00,244.67 305.00,256.50 ZM 560.67 263.33 C561.03,263.70 561.93,264.00 562.67,264.00 C563.60,264.00 564.00,262.51 564.00,259.05 L 564.00 254.11 L 568.74 253.80 C572.31,253.58 573.56,253.07 573.81,251.75 C574.10,250.27 573.36,250.00 569.07,250.00 L 564.00 250.00 L 564.00 245.00 C564.00,240.67 563.73,240.00 562.00,240.00 C560.27,240.00 560.00,240.67 560.00,245.00 L 560.00 250.00 L 555.43 250.00 C551.61,250.00 550.91,250.29 551.19,251.75 C551.43,253.03 552.66,253.58 555.76,253.81 L 560.00 254.11 L 560.00 258.39 C560.00,260.74 560.30,262.97 560.67,263.33 ZM 872.69 263.35 C874.27,264.93 875.52,263.05 875.80,258.67 L 876.11 254.00 L 880.55 254.00 C884.33,254.00 885.00,253.70 885.00,252.00 C885.00,250.30 884.33,250.00 880.50,250.00 L 876.00 250.00 L 876.00 245.00 C876.00,240.67 875.73,240.00 874.00,240.00 C872.27,240.00 872.00,240.67 872.00,245.00 L 872.00 250.00 L 867.43 250.00 C863.61,250.00 862.91,250.29 863.19,251.75 C863.43,253.03 864.66,253.58 867.76,253.81 L 872.00 254.11 L 872.00 258.39 C872.00,260.74 872.31,262.98 872.69,263.35 ZM 630.78 263.44 C629.52,264.32 626.48,265.00 623.78,265.00 L 619.00 265.00 L 619.00 253.00 L 623.78 253.00 C629.77,253.00 633.00,255.10 633.00,259.00 C633.00,260.85 632.20,262.45 630.78,263.44 ZM 184.00 107.00 L 184.00 119.10 L 194.50 118.50 L 194.80 112.75 L 195.10 107.00 ZM 629.43 247.43 C628.47,248.38 626.12,249.00 623.43,249.00 L 619.00 249.00 L 619.00 239.00 L 623.80 239.00 C626.44,239.00 629.14,239.54 629.80,240.20 C631.48,241.88 631.29,245.56 629.43,247.43 ZM 660.37 263.93 C655.80,267.52 649.00,266.26 649.00,261.82 C649.00,259.37 652.60,257.35 658.25,256.64 C662.97,256.04 663.00,256.06 663.00,258.95 C663.00,260.90 662.13,262.54 660.37,263.93 ZM 735.00 140.00 L 735.00 151.11 L 743.50 150.50 L 744.10 140.00 ZM 585.20 145.81 L 584.89 151.12 L 589.20 150.81 L 593.50 150.50 L 593.80 145.19 L 594.11 139.88 L 589.80 140.19 L 585.50 140.50 ZM 446.00 253.43 C446.00,253.75 442.40,254.00 438.00,254.00 C429.30,254.00 428.53,253.37 432.45,249.45 C434.89,247.01 440.16,246.14 442.60,247.77 C443.69,248.49 446.00,252.34 446.00,253.43 ZM 757.32 252.25 C757.87,253.82 757.13,254.00 749.97,254.00 C741.30,254.00 740.54,253.37 744.45,249.45 C748.79,245.12 755.29,246.54 757.32,252.25 ZM 1024.88 173.38 C1019.71,174.41 1019.00,174.04 1019.00,170.37 C1019.00,167.78 1021.62,166.00 1025.43,166.00 C1027.68,166.00 1028.00,166.42 1028.00,169.38 C1028.00,172.35 1027.63,172.82 1024.88,173.38 ZM 691.72 172.61 C691.56,172.78 689.53,173.21 687.21,173.58 L 683.00 174.26 L 683.00 170.73 C683.00,167.04 684.20,166.00 688.46,166.00 C690.23,166.00 690.89,166.72 691.38,169.16 C691.73,170.90 691.88,172.45 691.72,172.61 ZM 657.81 172.53 C657.60,172.74 655.53,173.21 653.21,173.58 L 649.00 174.26 L 649.00 170.74 C649.00,167.95 649.46,167.11 651.25,166.63 C655.63,165.46 656.82,165.92 657.52,169.07 C657.89,170.76 658.02,172.32 657.81,172.53 ZM 917.92 173.37 C912.46,174.46 912.00,174.24 912.00,170.55 C912.00,167.38 912.30,167.03 915.55,166.43 L 915.81 166.38 C917.71,166.02 918.66,165.84 919.23,166.22 C919.81,166.62 920.00,167.61 920.43,169.62 C921.05,172.51 920.87,172.78 917.92,173.37 Z" fill="rgb(13,13,13)"/>
<path d="M 112.86 188.31 C112.56,188.57 112.27,188.81 112.00,189.00 C110.32,190.19 108.30,192.74 107.50,194.66 C105.84,198.62 104.53,198.41 103.66,194.06 C103.38,192.65 102.77,191.59 101.59,190.62 C105.93,192.95 106.06,192.87 107.23,191.00 C107.92,189.90 109.43,189.00 110.59,189.00 C111.37,189.00 112.12,188.78 112.86,188.31 ZM 98.47 188.71 C96.43,187.52 94.29,185.53 93.54,184.07 C93.41,183.82 93.26,183.56 93.08,183.30 C93.23,183.51 93.38,183.72 93.51,183.93 C94.44,185.37 96.39,187.22 98.47,188.71 ZM 90.19 179.97 C89.79,179.60 89.39,179.28 89.02,179.01 C88.60,178.71 88.23,178.45 87.92,178.19 C88.13,178.34 88.35,178.50 88.60,178.66 C89.07,178.96 89.62,179.42 90.19,179.97 ZM 118.70 180.62 C118.17,181.13 117.73,181.73 117.29,182.49 C117.68,181.75 118.12,181.15 118.70,180.62 ZM 86.09 174.29 C86.02,173.41 86.00,172.32 86.00,170.90 C86.00,172.31 86.02,173.41 86.09,174.29 Z" fill="rgb(86,86,86)"/>
<path d="M 614.00 234.79 L 622.47 235.15 C629.58,235.44 631.30,235.85 633.14,237.69 C636.06,240.61 635.99,245.31 632.99,248.51 C631.70,249.88 631.09,251.00 631.64,251.00 C632.18,251.00 633.61,251.92 634.81,253.04 C638.06,256.07 637.86,262.85 634.42,266.08 C632.17,268.20 630.72,268.54 622.92,268.85 L 614.00 269.20 ZM 494.50 269.05 C486.93,265.96 485.15,252.75 491.46,246.45 C494.27,243.64 500.56,242.25 503.15,243.86 C506.26,245.81 506.61,245.20 506.18,238.50 C505.77,232.05 505.79,232.00 508.38,232.00 L 511.00 232.00 L 511.00 250.50 C511.00,268.07 510.90,269.00 509.08,269.00 C508.03,269.00 507.01,268.52 506.81,267.94 C506.59,267.26 505.40,267.43 503.48,268.43 C500.22,270.13 497.58,270.32 494.50,269.05 ZM 805.50 268.58 C801.68,266.87 800.02,264.04 799.39,258.17 C798.74,252.15 801.21,247.19 806.19,244.53 C809.33,242.84 810.46,242.71 813.94,243.64 L 818.00 244.72 L 818.00 238.29 C818.00,232.19 818.12,231.88 820.25,232.18 C822.48,232.50 822.50,232.68 822.78,250.75 C823.04,268.26 822.98,269.00 821.11,269.00 C820.04,269.00 819.00,268.49 818.79,267.87 C818.53,267.08 817.44,267.24 815.26,268.37 C811.48,270.32 809.49,270.36 805.50,268.58 ZM 1055.10 268.74 C1050.96,266.61 1048.89,262.83 1048.85,257.32 C1048.76,246.25 1056.33,240.59 1066.05,244.44 C1067.38,244.97 1067.54,244.12 1067.18,238.53 C1066.77,232.05 1066.79,232.00 1069.38,232.00 L 1072.00 232.00 L 1072.00 250.50 C1072.00,268.33 1071.93,269.00 1070.00,269.00 C1068.90,269.00 1068.00,268.33 1068.00,267.51 C1068.00,266.30 1067.40,266.39 1064.75,268.01 C1061.01,270.29 1058.49,270.48 1055.10,268.74 ZM 992.89 268.00 C984.27,263.45 983.86,250.10 992.19,245.03 C998.45,241.21 1007.01,243.38 1009.54,249.43 C1011.95,255.20 1011.11,263.14 1007.75,266.34 C1005.86,268.13 1001.18,270.01 998.70,269.96 C997.49,269.93 994.87,269.05 992.89,268.00 ZM 338.30 268.10 C330.12,262.96 329.25,252.65 336.45,246.00 C338.57,244.05 340.23,243.50 344.01,243.50 C350.36,243.50 353.99,246.19 355.89,252.28 C357.17,256.42 357.14,257.35 355.56,261.48 C353.56,266.73 350.72,268.98 345.29,269.64 C342.61,269.97 340.56,269.52 338.30,268.10 ZM 648.85 268.87 C647.37,268.33 645.65,266.57 644.95,264.89 C642.73,259.51 647.74,255.23 658.25,253.52 C662.17,252.88 663.25,250.65 660.80,248.20 C659.15,246.55 653.50,246.69 650.08,248.46 C648.52,249.26 646.97,249.64 646.63,249.29 C645.03,247.70 646.37,246.02 650.49,244.45 C656.28,242.24 661.72,243.03 664.75,246.52 C666.76,248.83 667.00,250.18 667.00,259.06 C667.00,268.33 666.87,269.00 665.00,269.00 C663.89,269.00 663.00,268.33 663.00,267.50 C663.00,266.25 662.37,266.34 659.26,268.00 C655.20,270.17 652.93,270.37 648.85,268.87 ZM 746.00 268.88 C739.06,266.12 735.73,259.17 737.90,251.95 C741.20,240.92 757.87,240.14 761.08,250.88 C763.07,257.50 762.39,258.00 751.53,258.00 C741.21,258.00 739.88,258.88 743.97,262.97 C747.21,266.21 752.88,266.83 758.25,264.53 C761.35,263.21 760.25,266.82 757.05,268.47 C753.72,270.20 749.69,270.35 746.00,268.88 ZM 434.62 268.97 C427.88,266.95 423.76,259.29 425.90,252.79 C429.33,242.41 442.72,239.65 448.02,248.23 C449.16,250.07 449.93,252.81 449.77,254.50 L 449.50 257.50 L 439.75 257.79 C434.39,257.94 430.00,258.26 430.00,258.49 C430.00,260.50 432.80,264.09 435.11,265.04 C437.90,266.20 442.92,266.00 446.12,264.59 C447.17,264.14 447.96,264.45 448.36,265.50 C448.81,266.67 448.03,267.51 445.52,268.56 C441.69,270.15 438.94,270.26 434.62,268.97 ZM 708.00 250.50 C708.00,232.67 708.07,232.00 710.00,232.00 C711.89,232.00 712.00,232.67 712.00,244.00 C712.00,250.60 712.35,256.00 712.78,256.00 C713.21,256.00 716.23,253.30 719.50,250.00 C723.60,245.86 726.21,244.00 727.93,244.00 C730.27,244.00 730.13,244.30 725.58,248.92 L 720.73 253.84 L 724.20 258.17 C726.10,260.55 728.67,263.96 729.90,265.75 L 732.14 269.00 L 729.74 269.00 C727.96,269.00 726.23,267.45 723.00,263.00 C720.61,259.70 718.37,257.00 718.01,257.00 C716.04,257.00 712.00,262.92 712.00,265.80 C712.00,268.33 711.58,269.00 710.00,269.00 C708.07,269.00 708.00,268.33 708.00,250.50 ZM 1020.92 267.08 C1018.08,264.23 1018.00,263.88 1018.00,254.08 L 1018.00 244.00 L 1020.50 244.00 C1023.00,244.00 1023.00,244.00 1023.00,253.96 C1023.00,262.79 1023.22,264.05 1024.93,264.96 C1027.87,266.54 1030.45,266.22 1033.37,263.93 C1035.86,261.96 1036.00,261.38 1036.00,252.93 C1036.00,244.07 1036.02,244.00 1038.50,244.00 L 1041.00 244.00 L 1041.00 256.50 C1041.00,268.33 1040.89,269.00 1039.00,269.00 C1037.89,269.00 1037.00,268.33 1037.00,267.50 C1037.00,265.57 1036.70,265.60 1032.77,268.00 C1028.10,270.85 1024.41,270.56 1020.92,267.08 ZM 273.00 235.00 L 283.50 235.00 C293.33,235.00 294.00,235.13 294.00,237.00 C294.00,238.83 293.33,239.00 286.00,239.00 L 278.00 239.00 L 278.00 250.00 L 285.11 250.00 C291.18,250.00 292.13,250.23 291.61,251.58 C291.27,252.45 291.00,253.35 291.00,253.58 C291.00,253.81 288.08,254.00 284.50,254.00 L 278.00 254.00 L 278.00 261.50 C278.00,268.83 277.94,269.00 275.50,269.00 L 273.00 269.00 ZM 933.50 268.60 C922.14,263.58 920.71,244.46 931.11,236.75 C934.68,234.10 942.66,233.89 946.41,236.35 C948.92,237.99 949.06,238.36 947.73,239.70 C946.40,241.03 945.94,241.01 943.63,239.50 C939.81,236.99 934.23,238.54 931.27,242.93 C928.32,247.30 928.13,256.07 930.89,260.58 C933.50,264.87 938.27,266.74 942.37,265.09 C946.82,263.30 948.50,263.28 948.50,265.00 C948.50,266.84 942.42,270.01 939.00,269.96 C937.62,269.94 935.15,269.33 933.50,268.60 ZM 364.00 256.50 C364.00,244.67 364.11,244.00 366.00,244.00 C367.11,244.00 368.00,244.67 368.00,245.50 C368.00,245.55 368.00,245.61 368.00,245.66 L 368.00 245.71 L 368.00 245.75 C368.00,246.29 368.00,246.64 368.17,246.78 C368.49,247.04 369.40,246.58 371.97,245.27 C372.14,245.18 372.32,245.09 372.50,245.00 C379.25,241.56 383.99,242.67 385.89,248.13 C386.50,249.87 387.00,255.28 387.00,260.15 C387.00,268.15 386.82,269.00 385.12,269.00 C383.44,269.00 383.19,267.99 382.83,259.60 C382.57,253.81 381.91,249.59 381.09,248.60 C379.24,246.38 374.78,246.60 371.63,249.07 C369.14,251.04 369.00,251.62 369.00,260.07 C369.00,268.93 368.98,269.00 366.50,269.00 L 364.00 269.00 ZM 406.50 268.79 C402.77,266.65 402.06,264.68 402.03,256.31 L 402.00 248.12 L 398.26 247.81 C395.70,247.60 394.42,246.97 394.20,245.81 C393.95,244.51 394.75,244.06 397.69,243.81 C401.31,243.52 401.52,243.31 401.81,239.75 C402.05,236.86 402.55,236.00 404.00,236.00 C405.45,236.00 405.95,236.86 406.19,239.75 L 406.50 243.50 L 412.81 243.80 C418.13,244.05 419.08,244.37 418.80,245.80 C418.55,247.14 417.17,247.56 412.24,247.80 L 406.00 248.10 L 406.00 255.48 C406.00,264.84 407.26,266.42 414.18,265.76 C418.26,265.36 419.00,265.56 419.00,267.02 C419.00,269.78 410.36,271.01 406.50,268.79 ZM 458.00 256.50 C458.00,244.67 458.11,244.00 460.00,244.00 C461.11,244.00 462.00,244.67 462.00,245.50 C462.00,247.43 462.30,247.40 466.23,245.00 C476.00,239.05 481.92,246.55 480.82,263.50 C480.55,267.81 480.19,268.54 478.25,268.82 C476.05,269.13 476.00,268.92 476.00,259.64 C476.00,252.34 475.64,249.78 474.43,248.57 C472.31,246.46 469.17,246.60 465.25,248.99 L 462.00 250.97 L 462.00 259.99 C462.00,268.33 461.85,269.00 460.00,269.00 C458.11,269.00 458.00,268.33 458.00,256.50 ZM 770.00 256.50 C770.00,244.46 770.08,244.00 772.11,244.00 C773.57,244.00 774.04,244.46 773.64,245.50 L 773.58 245.65 C773.34,246.28 773.19,246.67 773.31,246.81 C773.52,247.03 774.50,246.53 777.13,245.19 L 777.50 245.00 C782.78,242.31 786.54,242.45 789.55,245.45 C791.84,247.75 792.00,248.59 792.00,258.45 C792.00,268.33 791.87,269.00 790.00,269.00 C788.15,269.00 788.00,268.33 788.00,260.22 C788.00,253.90 787.57,250.82 786.44,249.22 C784.45,246.38 780.14,246.32 776.63,249.07 C774.14,251.04 774.00,251.62 774.00,260.07 C774.00,268.33 773.85,269.00 772.00,269.00 C770.11,269.00 770.00,268.33 770.00,256.50 ZM 1002.46 264.84 C1005.99,263.23 1007.66,257.53 1006.04,252.62 C1004.73,248.64 1002.53,247.00 998.52,247.00 C991.61,247.00 988.28,257.77 993.45,263.35 C996.13,266.24 998.52,266.63 1002.46,264.84 ZM 347.46 265.38 C349.56,264.57 352.00,259.80 352.00,256.50 C352.00,252.59 349.28,248.11 346.48,247.41 C342.57,246.42 339.17,247.78 337.52,250.96 C333.29,259.15 339.65,268.37 347.46,265.38 ZM 683.42 268.58 C678.38,266.39 676.00,262.51 676.00,256.50 C676.00,248.42 681.63,243.00 690.02,243.00 C693.45,243.00 699.00,245.50 699.00,247.06 C699.00,248.63 695.99,249.39 694.73,248.13 C694.11,247.51 691.92,247.00 689.86,247.00 C678.42,247.00 676.47,263.50 687.65,265.59 C690.05,266.04 692.31,265.75 694.51,264.70 C697.80,263.13 699.00,263.34 699.00,265.48 C699.00,267.05 692.54,270.01 689.22,269.96 C687.72,269.94 685.11,269.32 683.42,268.58 ZM 815.78 264.44 C817.71,263.09 818.00,261.98 818.00,255.98 C818.00,250.17 817.69,248.91 816.07,248.04 C810.05,244.82 804.00,249.06 804.00,256.50 C804.00,264.19 810.18,268.36 815.78,264.44 ZM 503.78 264.44 C505.70,263.10 506.00,261.98 506.00,256.14 C506.00,248.72 505.04,247.00 500.88,247.00 C496.80,247.00 495.08,247.95 493.46,251.07 C491.60,254.68 491.60,258.33 493.48,261.96 C495.69,266.24 499.80,267.23 503.78,264.44 ZM 1064.94 264.25 C1066.85,262.71 1067.07,261.67 1066.80,255.52 C1066.52,249.02 1066.32,248.48 1063.89,247.63 C1056.06,244.88 1050.23,253.75 1054.48,261.96 C1056.74,266.33 1061.17,267.30 1064.94,264.25 ZM 969.32 268.99 C965.62,267.51 965.00,264.77 965.00,250.12 L 965.00 236.11 L 960.76 235.81 C957.66,235.58 956.43,235.03 956.19,233.75 C955.90,232.23 956.71,232.00 962.43,232.00 L 969.00 232.00 L 969.00 247.96 C969.00,263.21 969.10,263.98 971.12,265.07 C972.29,265.69 974.50,265.95 976.03,265.64 C979.84,264.88 980.98,267.68 977.42,269.03 C974.38,270.19 972.26,270.18 969.32,268.99 ZM 305.00 256.50 C305.00,244.67 305.11,244.00 307.00,244.00 C308.33,244.00 309.00,244.67 309.00,246.00 C309.00,248.54 309.15,248.52 313.67,245.45 C318.36,242.27 324.50,242.30 324.50,245.50 C324.50,247.15 323.94,247.44 321.33,247.18 C319.59,247.01 316.80,247.57 315.14,248.43 C310.22,250.97 309.00,253.61 309.00,261.72 C309.00,268.33 308.82,269.00 307.00,269.00 C305.11,269.00 305.00,268.33 305.00,256.50 ZM 560.67 263.33 C560.30,262.97 560.00,260.74 560.00,258.39 L 560.00 254.11 L 555.76 253.81 C552.66,253.58 551.43,253.03 551.19,251.75 C550.91,250.29 551.61,250.00 555.43,250.00 L 560.00 250.00 L 560.00 245.00 C560.00,240.67 560.27,240.00 562.00,240.00 C563.73,240.00 564.00,240.67 564.00,245.00 L 564.00 250.00 L 569.07 250.00 C573.36,250.00 574.10,250.27 573.81,251.75 C573.56,253.07 572.31,253.58 568.74,253.80 L 564.00 254.11 L 564.00 259.05 C564.00,262.51 563.60,264.00 562.67,264.00 C561.93,264.00 561.03,263.70 560.67,263.33 ZM 872.69 263.35 C872.31,262.98 872.00,260.74 872.00,258.39 L 872.00 254.11 L 867.76 253.81 C864.66,253.58 863.43,253.03 863.19,251.75 C862.91,250.29 863.61,250.00 867.43,250.00 L 872.00 250.00 L 872.00 245.00 C872.00,240.67 872.27,240.00 874.00,240.00 C875.73,240.00 876.00,240.67 876.00,245.00 L 876.00 250.00 L 880.50 250.00 C884.33,250.00 885.00,250.30 885.00,252.00 C885.00,253.70 884.33,254.00 880.55,254.00 L 876.11 254.00 L 875.80 258.67 C875.52,263.05 874.27,264.93 872.69,263.35 ZM 630.78 263.44 C632.20,262.45 633.00,260.85 633.00,259.00 C633.00,255.10 629.77,253.00 623.78,253.00 L 619.00 253.00 L 619.00 265.00 L 623.78 265.00 C626.48,265.00 629.52,264.32 630.78,263.44 ZM 629.43 247.43 C631.29,245.56 631.48,241.88 629.80,240.20 C629.14,239.54 626.44,239.00 623.80,239.00 L 619.00 239.00 L 619.00 249.00 L 623.43 249.00 C626.12,249.00 628.47,248.38 629.43,247.43 ZM 660.37 263.93 C662.13,262.54 663.00,260.90 663.00,258.95 C663.00,256.06 662.97,256.04 658.25,256.64 C652.60,257.35 649.00,259.37 649.00,261.82 C649.00,266.26 655.80,267.52 660.37,263.93 ZM 446.00 253.43 C446.00,252.34 443.69,248.49 442.60,247.77 C440.16,246.14 434.89,247.01 432.45,249.45 C428.53,253.37 429.30,254.00 438.00,254.00 C442.40,254.00 446.00,253.75 446.00,253.43 ZM 757.32 252.25 C755.29,246.54 748.79,245.12 744.45,249.45 C740.54,253.37 741.30,254.00 749.97,254.00 C757.13,254.00 757.87,253.82 757.32,252.25 ZM 228.15 176.34 C224.10,176.18 221.05,176.06 218.77,176.01 C220.36,175.89 222.31,175.78 224.71,175.66 C231.74,175.30 240.02,175.01 243.10,175.00 C245.86,175.00 247.82,174.75 249.24,173.98 C248.80,174.34 248.31,174.68 247.77,175.00 C244.72,176.87 243.41,176.96 228.15,176.34 ZM 59.59 160.24 C58.26,162.13 57.86,165.34 57.44,170.71 C56.36,184.76 56.73,228.17 57.96,231.39 C58.24,232.14 58.83,232.95 59.57,233.67 C58.80,232.93 58.18,232.08 57.86,231.30 C57.12,229.45 56.70,217.59 56.62,196.46 C56.51,167.53 56.67,164.16 58.25,161.75 C58.61,161.19 59.06,160.69 59.59,160.24 ZM 76.29 157.78 C75.14,157.72 73.72,157.69 71.93,157.65 C69.39,157.61 67.32,157.60 65.63,157.73 C68.02,157.32 70.87,157.26 74.14,157.55 C74.94,157.62 75.65,157.70 76.29,157.78 ZM 255.34 157.12 C256.56,156.42 258.48,156.23 261.59,156.13 L 261.51 156.14 C259.09,156.43 256.77,156.80 255.34,157.12 ZM 266.62 155.42 C267.73,155.01 268.71,154.43 269.62,153.65 L 270.61 152.80 C270.29,153.38 269.91,153.83 269.45,154.20 C268.71,154.80 267.79,155.16 266.62,155.42 ZM 251.84 170.60 C252.37,169.05 252.69,166.99 252.92,164.27 C252.95,163.98 252.97,163.70 253.00,163.42 C252.97,166.51 252.63,168.79 251.84,170.60 ZM 212.85 178.78 C212.47,178.53 212.28,178.25 212.22,177.91 C212.21,177.86 212.20,177.82 212.20,177.78 C212.30,178.19 212.49,178.51 212.85,178.78 ZM 272.18 132.49 L 272.11 124.96 C272.12,125.88 272.13,126.78 272.13,127.65 C272.15,129.37 272.17,130.98 272.18,132.49 ZM 85.52 164.61 C85.81,165.58 85.93,166.75 85.98,168.41 C85.93,166.76 85.81,165.59 85.52,164.61 Z" fill="rgb(170,170,170)"/>
<path d="M 0.00 206.00 L 0.00 0.00 L 564.50 0.00 L 1129.00 0.00 L 1129.00 206.00 L 1129.00 412.00 L 564.50 412.00 L 0.00 412.00 L 0.00 206.00 ZM 1119.32 403.75 C1120.92,402.58 1121.03,390.06 1121.02,206.17 C1121.02,98.19 1120.76,9.43 1120.45,8.92 C1119.53,7.43 10.70,7.70 9.20,9.20 C8.27,10.13 8.00,55.17 8.00,205.87 C8.00,386.36 8.13,401.48 9.65,403.17 C11.25,404.94 29.85,405.00 564.46,405.00 C1005.41,405.00 1117.96,404.75 1119.32,403.75 ZM 112.24 314.34 C106.86,313.57 106.00,310.56 106.00,292.56 L 106.00 277.03 L 102.08 274.55 C99.92,273.19 97.87,271.17 97.52,270.06 C97.17,268.96 95.00,266.79 92.69,265.24 C90.39,263.69 87.91,261.19 87.18,259.68 C86.45,258.17 84.13,255.84 82.01,254.51 C79.89,253.17 77.86,251.14 77.50,250.00 C77.14,248.86 75.06,246.80 72.88,245.43 C70.71,244.05 68.07,241.52 67.02,239.80 C65.98,238.08 63.74,236.09 62.05,235.38 C60.34,234.66 58.53,232.90 57.96,231.39 C56.73,228.17 56.36,184.76 57.44,170.71 C58.40,158.23 59.30,157.43 71.93,157.65 C80.11,157.80 80.55,157.93 83.22,160.92 C85.65,163.64 86.00,164.84 86.00,170.45 C86.00,176.44 86.20,177.00 89.02,179.01 C90.67,180.19 92.71,182.47 93.54,184.07 C94.36,185.67 96.85,187.90 99.05,189.03 C102.00,190.53 103.22,191.86 103.66,194.06 C104.53,198.41 105.84,198.62 107.50,194.66 C108.30,192.74 110.32,190.19 112.00,189.00 C113.67,187.81 115.86,185.23 116.87,183.26 C118.39,180.31 119.65,179.40 124.10,178.06 C128.03,176.87 129.84,175.73 130.74,173.84 C132.60,169.98 134.73,168.62 139.86,168.03 C143.99,167.56 144.67,167.11 146.19,163.88 C147.13,161.89 149.46,159.34 151.36,158.21 L 154.84 156.16 L 155.22 127.83 C155.42,112.25 155.97,98.70 156.42,97.71 C156.87,96.73 158.78,95.28 160.66,94.50 C162.90,93.56 164.55,91.92 165.48,89.71 C166.25,87.86 167.53,85.81 168.32,85.15 C170.06,83.71 244.18,82.43 253.50,83.69 C259.42,84.49 259.53,84.57 261.88,89.30 C263.71,92.98 264.94,94.24 267.17,94.68 C268.76,95.00 270.47,96.02 270.97,96.94 C271.46,97.86 271.97,110.47 272.11,124.96 L 272.35 151.30 L 269.62 153.65 C267.76,155.25 265.55,156.03 262.69,156.10 C254.16,156.30 253.57,156.80 252.92,164.27 C252.15,173.21 250.51,175.00 243.10,175.00 C240.02,175.01 231.74,175.30 224.71,175.66 C213.75,176.22 211.96,176.54 212.22,177.91 C212.45,179.15 214.34,179.64 220.78,180.11 C232.94,181.02 233.00,181.11 233.00,198.00 C233.00,214.83 232.81,215.13 221.20,215.95 L 213.50 216.50 L 213.25 225.00 C212.90,236.73 212.57,237.67 207.98,240.01 C204.46,241.81 204.00,242.45 204.00,245.62 C204.00,248.48 203.24,249.90 200.25,252.65 C195.97,256.59 195.18,257.36 191.18,261.50 C189.58,263.15 187.09,265.31 185.64,266.30 C183.16,267.98 183.00,268.58 183.00,275.96 C183.00,285.81 183.39,286.79 187.62,287.59 C192.75,288.55 194.00,291.12 194.00,300.67 C194.00,307.92 193.71,309.22 191.59,311.69 L 189.17 314.50 L 174.62 314.50 C155.71,314.50 156.61,315.33 156.17,297.42 L 155.84 283.90 L 150.17 284.20 L 144.50 284.50 L 144.22 297.10 C143.96,308.99 143.80,309.84 141.51,311.99 C139.29,314.07 137.99,314.31 127.28,314.55 C120.80,314.69 114.03,314.60 112.24,314.34 ZM 135.80 300.09 L 135.50 295.50 L 130.75 295.20 L 126.00 294.89 L 126.00 291.00 L 126.00 287.11 L 130.75 286.80 L 135.50 286.50 L 135.80 281.80 L 136.11 277.11 L 140.80 276.80 L 145.50 276.50 L 145.80 271.75 L 146.11 267.00 L 150.05 267.00 L 154.00 267.00 L 154.00 272.00 L 154.00 277.00 L 159.00 277.00 L 164.00 277.00 L 164.00 291.33 C164.00,299.22 164.19,305.85 164.41,306.08 C164.64,306.31 169.36,306.36 174.91,306.18 L 185.00 305.87 L 185.00 300.49 L 185.00 295.11 L 180.25 294.80 L 175.50 294.50 L 175.50 276.00 L 175.50 257.50 L 180.20 257.20 L 184.89 256.89 L 185.20 252.20 L 185.50 247.50 L 190.00 247.00 L 194.50 246.50 L 194.79 239.80 L 195.09 233.11 L 199.79 232.80 L 204.50 232.50 L 204.77 215.19 L 205.05 197.88 L 208.77 198.19 C212.39,198.49 212.51,198.63 213.00,203.00 L 213.50 207.50 L 219.00 207.50 L 224.50 207.50 L 224.78 197.29 L 225.07 187.07 L 215.28 186.79 L 205.50 186.50 L 205.21 177.88 L 204.93 169.26 L 208.09 168.63 C209.83,168.28 218.62,168.00 227.62,168.00 L 244.00 168.00 L 244.00 162.50 L 244.00 157.00 L 229.50 157.00 L 215.00 157.00 L 215.00 153.02 L 215.00 149.04 L 239.25 148.77 L 263.50 148.50 L 263.77 125.81 L 264.04 103.11 L 259.27 102.81 L 254.50 102.50 L 254.20 97.75 L 253.89 93.00 L 213.95 93.00 L 174.00 93.00 L 174.00 96.80 C174.00,101.59 172.59,103.00 167.81,103.00 L 164.03 103.00 L 163.76 134.75 L 163.50 166.50 L 158.80 166.80 L 154.11 167.11 L 153.80 171.30 L 153.50 175.50 L 146.50 176.00 L 139.50 176.50 L 139.00 181.50 L 138.50 186.50 L 131.75 186.80 L 125.00 187.09 L 125.00 190.92 C125.00,195.54 123.74,196.75 118.49,197.18 C114.69,197.48 114.49,197.67 114.34,201.00 C114.26,202.93 114.15,204.84 114.09,205.25 C114.04,205.66 110.20,206.00 105.55,206.00 L 97.11 206.00 L 96.80 201.25 L 96.50 196.50 L 91.75 196.20 L 87.00 195.89 L 87.00 191.50 L 87.00 187.11 L 82.25 186.80 L 77.50 186.50 L 77.21 176.75 L 76.93 167.00 L 71.46 167.00 L 66.00 167.00 L 66.00 197.50 L 66.00 228.00 L 70.45 228.00 L 74.89 228.00 L 75.20 232.75 L 75.50 237.50 L 80.20 237.80 L 84.89 238.11 L 85.20 242.30 C85.50,246.48 85.52,246.50 90.00,247.00 L 94.50 247.50 L 94.80 252.20 L 95.11 256.89 L 99.80 257.20 L 104.50 257.50 L 104.80 262.20 L 105.11 266.89 L 109.80 267.20 L 114.50 267.50 L 114.50 286.50 L 114.50 305.50 L 124.00 306.00 C129.23,306.27 134.08,306.09 134.80,305.59 C135.63,305.01 135.99,303.01 135.80,300.09 ZM 553.13 208.50 L 551.06 204.99 L 559.03 200.98 C566.70,197.13 567.00,196.85 567.00,193.49 C567.00,189.75 566.00,189.09 564.00,191.50 C563.20,192.46 560.99,193.00 557.83,193.00 C553.08,193.00 552.84,192.86 551.28,189.25 C549.06,184.08 548.19,162.91 550.13,161.32 C551.54,160.17 569.41,156.00 572.94,156.00 C574.36,156.00 575.19,157.03 575.93,159.69 C576.49,161.73 576.84,163.49 576.72,163.62 C576.59,163.74 572.47,164.55 567.56,165.41 C562.66,166.26 558.26,167.53 557.80,168.23 C556.87,169.63 557.75,180.19 559.10,183.75 C559.96,186.02 561.52,186.50 564.42,185.39 C565.66,184.92 566.00,183.22 566.00,177.51 C566.00,169.68 566.50,169.05 572.75,169.01 C574.99,169.00 575.00,169.07 575.00,184.87 L 575.00 200.73 L 568.25 205.23 C560.69,210.26 557.59,212.00 556.16,212.00 C555.63,212.00 554.27,210.42 553.13,208.50 ZM 794.30 208.51 C793.39,206.59 792.83,204.85 793.07,204.63 C793.31,204.41 796.76,202.60 800.75,200.60 C807.67,197.14 808.00,196.82 808.00,193.49 C808.00,189.73 807.00,189.09 804.96,191.55 C804.06,192.63 802.29,193.01 799.09,192.80 C794.84,192.52 794.36,192.21 792.56,188.51 C789.99,183.27 788.97,163.10 791.17,161.28 C793.33,159.48 814.77,155.36 815.87,156.52 C816.37,157.06 817.09,158.91 817.45,160.64 L 818.11 163.78 L 811.30 164.91 C807.56,165.54 803.21,166.31 801.63,166.63 L 798.76 167.21 L 799.20 175.63 C799.45,180.26 800.13,184.53 800.72,185.12 C801.35,185.75 803.09,185.92 804.90,185.52 L 808.00 184.84 L 808.00 177.53 C808.00,169.71 808.47,169.00 813.61,169.00 L 816.05 169.00 L 815.77 185.24 L 815.50 201.47 L 807.09 206.74 C802.46,209.63 798.07,212.00 797.32,212.00 C796.58,212.00 795.22,210.43 794.30,208.51 ZM 490.37 194.05 C484.80,193.07 479.74,191.96 479.12,191.58 C478.35,191.10 478.00,184.52 478.00,170.58 L 478.00 150.27 L 486.25 148.72 C502.31,145.68 501.69,145.70 502.36,148.23 C503.85,153.76 503.29,154.73 498.25,155.41 C484.55,157.26 485.21,156.78 486.62,163.88 L 487.25 167.00 L 494.62 167.00 C501.76,167.00 502.00,167.08 502.00,169.42 C502.00,174.46 501.23,175.00 494.02,175.00 L 487.26 175.00 L 486.72 179.75 C486.42,182.36 486.31,184.63 486.46,184.78 C486.61,184.94 489.61,185.51 493.12,186.04 C504.51,187.78 503.93,187.43 502.77,191.99 C502.21,194.20 501.47,195.96 501.13,195.92 C500.78,195.87 495.94,195.03 490.37,194.05 ZM 654.50 193.92 C641.26,190.71 641.37,190.79 640.64,183.79 C639.68,174.69 639.87,167.12 641.09,164.83 C642.49,162.22 653.94,157.00 658.29,157.00 C664.12,157.00 664.90,158.36 665.64,169.75 L 666.30 180.00 L 657.65 180.00 C649.18,180.00 649.00,180.05 649.00,182.41 C649.00,184.62 649.59,184.91 656.25,186.01 C666.61,187.72 666.26,187.52 665.46,191.25 C664.66,195.00 664.16,196.03 663.19,195.93 C662.81,195.89 658.90,194.98 654.50,193.92 ZM 657.81 172.53 C658.02,172.32 657.89,170.76 657.52,169.07 C656.82,165.92 655.63,165.46 651.25,166.63 C649.46,167.11 649.00,167.95 649.00,170.74 L 649.00 174.26 L 653.21 173.58 C655.53,173.21 657.60,172.74 657.81,172.53 ZM 688.50 193.91 C675.26,190.71 675.37,190.79 674.64,183.79 C673.35,171.46 673.79,166.12 676.31,163.60 C678.99,160.91 688.81,157.00 692.85,157.00 C698.07,157.00 698.92,158.59 699.64,169.75 L 700.30 180.00 L 691.65 180.00 C683.19,180.00 683.00,180.05 683.00,182.39 C683.00,185.07 684.14,185.53 693.38,186.61 C696.57,186.99 699.36,187.79 699.58,188.40 C700.16,189.97 698.57,195.32 697.45,195.61 C696.93,195.74 692.90,194.98 688.50,193.91 ZM 691.72 172.61 C691.88,172.45 691.73,170.90 691.38,169.16 C690.89,166.72 690.23,166.00 688.46,166.00 C684.20,166.00 683.00,167.04 683.00,170.73 L 683.00 174.26 L 687.21 173.58 C689.53,173.21 691.56,172.78 691.72,172.61 ZM 851.00 193.80 C847.42,192.70 843.94,191.34 843.25,190.78 C842.32,190.02 842.00,184.47 842.00,169.38 L 842.00 149.00 L 844.25 148.99 C845.49,148.98 847.51,148.70 848.75,148.37 C850.89,147.80 851.00,148.05 851.00,153.36 L 851.00 158.96 L 855.50 158.34 L 860.00 157.73 L 860.00 161.86 L 860.00 166.00 L 855.59 166.00 L 851.18 166.00 L 850.47 174.48 C850.09,179.14 850.01,183.58 850.31,184.36 C850.60,185.13 853.09,186.30 855.83,186.96 C860.79,188.15 860.81,188.17 859.93,191.26 C859.44,192.97 858.69,194.69 858.27,195.09 C857.85,195.49 854.58,194.91 851.00,193.80 ZM 885.47 194.96 C885.12,194.38 885.11,188.19 885.46,181.20 C885.84,173.75 885.71,167.93 885.16,167.12 C884.50,166.15 883.18,165.93 880.74,166.39 C877.66,166.97 877.18,167.48 876.64,170.77 C876.30,172.82 876.02,178.66 876.01,183.75 L 876.00 193.00 L 872.12 193.00 L 868.25 193.00 L 867.51 168.41 C867.10,154.77 867.16,143.46 867.64,142.99 C868.11,142.53 870.19,141.85 872.25,141.47 L 876.00 140.78 L 876.01 147.64 C876.02,151.41 876.30,156.18 876.64,158.22 L 877.25 161.95 L 879.76 159.97 C883.18,157.28 891.01,157.25 893.43,159.92 C894.99,161.65 895.09,163.43 894.44,178.00 C893.97,188.37 893.32,194.29 892.61,194.50 C888.58,195.70 886.03,195.86 885.47,194.96 ZM 919.50 194.39 C916.20,193.61 911.42,192.28 908.89,191.45 L 904.28 189.93 L 903.64 183.82 C902.68,174.69 902.86,167.12 904.09,164.83 C905.49,162.22 916.94,157.00 921.29,157.00 C927.12,157.00 927.90,158.36 928.64,169.75 L 929.30 180.00 L 920.65 180.00 C912.19,180.00 912.00,180.05 912.00,182.39 C912.00,185.05 912.93,185.42 922.33,186.55 C925.54,186.94 928.35,187.76 928.57,188.38 C929.16,189.96 927.58,195.32 926.45,195.60 C925.93,195.72 922.80,195.18 919.50,194.39 ZM 917.92 173.37 C920.87,172.78 921.05,172.51 920.43,169.62 C919.57,165.58 919.68,165.65 915.55,166.43 C912.30,167.03 912.00,167.38 912.00,170.55 C912.00,174.24 912.46,174.46 917.92,173.37 ZM 1031.50 195.32 C1020.60,192.90 1013.30,190.65 1012.36,189.42 C1011.07,187.73 1010.54,166.15 1011.74,164.38 C1013.19,162.25 1023.18,157.88 1027.89,157.33 C1033.56,156.65 1036.00,158.45 1036.01,163.32 C1036.01,165.07 1036.30,169.54 1036.65,173.25 L 1037.29 180.00 L 1028.64 180.00 C1020.13,180.00 1020.00,180.04 1020.00,182.45 C1020.00,184.52 1020.60,185.01 1023.75,185.51 C1034.59,187.26 1037.08,188.16 1036.53,190.11 C1036.24,191.15 1035.74,192.90 1035.43,194.00 C1035.12,195.10 1034.56,195.95 1034.18,195.88 C1033.81,195.82 1032.60,195.57 1031.50,195.32 ZM 1024.88 173.38 C1027.63,172.82 1028.00,172.35 1028.00,169.38 C1028.00,166.42 1027.68,166.00 1025.43,166.00 C1021.62,166.00 1019.00,167.78 1019.00,170.37 C1019.00,174.04 1019.71,174.41 1024.88,173.38 ZM 512.65 186.40 C512.29,182.16 512.00,174.27 512.00,168.85 C512.00,160.14 512.20,159.00 513.75,158.99 C514.71,158.98 516.49,158.71 517.70,158.38 C519.48,157.91 520.04,158.30 520.56,160.39 L 521.22 163.00 L 524.18 160.50 C526.53,158.52 528.26,158.00 532.45,158.00 C540.33,158.00 540.38,158.16 539.37,177.24 L 538.50 193.50 L 534.88 193.80 L 531.26 194.10 L 530.81 180.56 C530.55,173.11 530.14,166.81 529.89,166.56 C529.64,166.31 527.54,166.58 525.22,167.17 L 521.00 168.24 L 521.00 180.62 L 521.00 193.00 L 518.58 193.00 C517.25,193.00 515.52,193.25 514.73,193.55 C513.60,193.98 513.17,192.50 512.65,186.40 ZM 585.67 193.33 C585.30,192.97 585.00,184.87 585.00,175.33 L 585.00 158.00 L 589.66 158.00 L 594.31 158.00 L 593.67 175.19 C593.21,187.30 592.65,192.61 591.76,193.17 C590.22,194.15 586.58,194.24 585.67,193.33 ZM 604.70 193.36 C604.31,192.98 604.00,185.15 604.00,175.96 L 604.00 159.25 L 607.12 158.62 C611.69,157.71 612.00,157.80 612.00,160.00 C612.00,161.10 612.39,162.00 612.87,162.00 C613.34,162.00 614.87,161.10 616.27,160.00 C619.52,157.45 628.10,157.21 630.09,159.61 C631.47,161.27 631.63,180.34 630.34,189.80 C629.76,194.05 629.71,194.10 626.13,193.80 L 622.50 193.50 L 622.22 179.74 L 621.94 165.98 L 619.22 166.58 C612.84,168.00 613.25,167.15 612.48,180.54 C611.84,191.60 611.56,193.00 609.96,193.00 C608.97,193.00 607.54,193.24 606.78,193.53 C606.02,193.82 605.08,193.75 604.70,193.36 ZM 709.65 190.30 C709.30,188.21 709.02,180.37 709.01,172.88 L 709.00 159.25 L 712.12 158.62 C716.66,157.72 716.72,157.74 717.47,160.75 L 718.16 163.50 L 720.16 160.75 C721.52,158.88 723.07,158.00 724.96,158.00 C727.38,158.00 727.89,158.53 728.76,161.94 C729.89,166.41 729.85,166.45 722.63,167.53 L 718.00 168.23 L 718.00 180.61 L 718.00 193.00 L 715.58 193.00 C714.25,193.00 712.51,193.25 711.72,193.55 C710.68,193.95 710.11,193.06 709.65,190.30 ZM 734.70 176.84 C734.36,167.40 734.31,159.30 734.60,158.84 C734.88,158.38 737.16,158.00 739.66,158.00 L 744.20 158.00 L 743.47 175.25 C743.01,186.12 742.33,192.77 741.62,193.23 C741.00,193.64 739.33,193.98 737.91,193.98 L 735.31 194.00 L 734.70 176.84 ZM 753.67 176.87 C753.31,167.40 753.13,159.56 753.26,159.46 C753.39,159.35 755.22,158.95 757.33,158.57 C760.66,157.97 761.23,158.15 761.69,159.94 C762.36,162.47 762.84,162.48 766.00,160.00 C768.87,157.75 777.83,157.23 779.80,159.20 C781.10,160.50 781.29,176.74 780.14,187.50 L 779.50 193.50 L 775.75 193.81 L 772.00 194.12 L 772.00 180.06 C772.00,172.33 771.66,166.00 771.25,166.01 C770.84,166.01 768.87,166.46 766.88,167.02 C763.54,167.94 763.22,168.37 762.63,172.65 C762.29,175.20 762.00,180.82 762.00,185.14 C762.00,192.79 761.93,193.00 759.58,193.00 C758.25,193.00 756.52,193.25 755.74,193.55 C754.56,194.00 754.21,191.17 753.67,176.87 ZM 960.02 188.75 C956.38,172.02 952.80,155.08 952.32,152.33 C951.79,149.32 951.98,149.09 955.89,147.92 C958.16,147.24 960.29,146.96 960.63,147.29 C961.35,148.02 965.46,170.80 966.48,179.75 C966.88,183.19 967.51,186.00 967.90,186.00 C968.28,186.00 969.98,181.49 971.67,175.97 C974.67,166.18 974.71,165.79 973.36,159.32 C972.59,155.68 972.09,152.60 972.23,152.48 C972.38,152.36 974.56,151.96 977.07,151.59 L 981.64 150.93 L 983.77 161.22 C984.95,166.87 986.43,174.65 987.07,178.50 C989.23,191.52 989.73,190.31 993.07,164.00 C994.23,154.93 995.28,147.39 995.42,147.25 C995.56,147.11 997.79,147.28 1000.38,147.64 L 1005.08 148.28 L 1004.43 152.89 C1003.34,160.64 1000.16,176.05 997.89,184.67 C995.53,193.62 995.15,193.96 987.29,193.99 C983.17,194.00 983.05,193.91 981.98,189.75 C978.77,177.28 978.36,177.09 975.91,186.86 C974.40,192.89 972.78,194.00 965.52,194.00 L 961.17 194.00 L 960.02 188.75 ZM 1046.00 168.24 L 1046.00 142.25 L 1049.12 141.62 C1055.64,140.32 1055.25,138.82 1054.86,163.50 L 1054.50 186.00 L 1057.77 186.00 C1061.81,186.00 1062.78,183.92 1063.67,173.38 L 1064.29 166.01 L 1061.15 165.38 C1058.57,164.86 1058.00,164.27 1058.02,162.12 C1058.04,157.63 1059.26,156.70 1064.13,157.49 C1066.53,157.87 1069.57,158.87 1070.89,159.71 C1073.21,161.19 1073.26,161.49 1072.74,171.36 C1072.13,182.78 1070.51,190.33 1068.26,192.20 C1067.33,192.97 1062.70,193.61 1056.37,193.84 L 1046.00 194.23 L 1046.00 168.24 ZM 585.20 145.81 L 585.50 140.50 L 589.80 140.19 L 594.11 139.88 L 593.80 145.19 L 593.50 150.50 L 589.20 150.81 L 584.89 151.12 L 585.20 145.81 ZM 735.00 145.56 L 735.00 140.00 L 739.55 140.00 L 744.10 140.00 L 743.80 145.25 L 743.50 150.50 L 739.25 150.81 L 735.00 151.11 L 735.00 145.56 ZM 184.00 113.05 L 184.00 107.00 L 189.55 107.00 L 195.10 107.00 L 194.80 112.75 L 194.50 118.50 L 189.25 118.80 L 184.00 119.10 L 184.00 113.05 Z" fill="rgb(250,250,250)"/>
</g>
</svg>